# xmcd
#
# Track frame offsets:
# 150
# 13612
# 30656
# 44802
# 57937
# 69309
# 85453
# 101319
# 113986
# 124331
# 139660
# 154878
# 167997
#
# Disc length: 2450 seconds
#
#
# Revision: 0
# Processed by: cddbd v1.5.2PL0 Copyright (c) Steve Scherf et al.
# Submitted via: FreeRIP 2.951 
#
DISCID=b409900d
DTITLE=San Marino - A força do amor
DYEAR=1900
DGENRE=Vocal
TTITLE0=Caixa postal
TTITLE1=Nunca mais vou te enganar
TTITLE2=Preciso te falar
TTITLE3=coraçao vagabundo
TTITLE4=Fora de serio
TTITLE5=A dama e o vagabundo
TTITLE6=Nosso amor e eletrico
TTITLE7=Nao vou deixar
TTITLE8=O email dela
TTITLE9=Ta com dor de cotovelo
TTITLE10=Ex namorado
TTITLE11=Vou pedir perdao
TTITLE12=A força do amor
EXTD=
EXTT0=
EXTT1=
EXTT2=
EXTT3=
EXTT4=
EXTT5=
EXTT6=
EXTT7=
EXTT8=
EXTT9=
EXTT10=
EXTT11=
EXTT12=
PLAYORDER=
